<?xml version="1.0" standalone="no"?>
<!DOCTYPE svg PUBLIC "-//W3C//DTD SVG 20010904//EN"
 "http://www.w3.org/TR/2001/REC-SVG-20010904/DTD/svg10.dtd">
<svg version="1.0" xmlns="http://www.w3.org/2000/svg"
 width="1000.000000pt" height="1000.000000pt" viewBox="0 0 1000.000000 1000.000000"
 preserveAspectRatio="xMidYMid meet">
<metadata>
Created by potrace 1.14, written by Peter Selinger 2001-2017
</metadata>
<g transform="translate(0.000000,1000.000000) scale(0.100000,-0.100000)"
fill="#000000" stroke="none">
<path d="M1440 9971 c-481 -138 -883 -435 -1156 -853 -115 -175 -216 -400
-271 -604 -13 -47 -16 -6928 -3 -6996 22 -115 106 -344 166 -453 12 -22 30
-56 40 -75 20 -38 129 -203 154 -234 302 -373 648 -608 1068 -726 l105 -30
3455 0 c3402 0 3455 0 3530 20 74 19 215 67 277 95 148 66 230 111 325 175 63
42 76 52 157 115 179 141 381 376 489 572 15 26 36 63 46 81 38 69 102 231
139 352 l38 125 1 3455 c0 3744 4 3476 -53 3651 -31 94 -88 232 -120 290 -13
24 -37 67 -52 94 -103 187 -308 425 -495 575 -225 181 -432 285 -760 383 -51
16 -330 17 -3520 16 l-3465 0 -95 -28z"/>
</g>
</svg>
